<?xml version="1.0" encoding="utf-8"?>
<!-- Generator: Adobe Illustrator 21.0.2, SVG Export Plug-In . SVG Version: 6.00 Build 0)  -->
<svg version="1.1" id="Layer_1" xmlns="http://www.w3.org/2000/svg" xmlns:xlink="http://www.w3.org/1999/xlink" x="0px" y="0px"
	 viewBox="0 0 973 1027" style="enable-background:new 0 0 973 1027;" xml:space="preserve">
<style type="text/css">
	.st0{display:none;fill:#FAFBFC;}
	.st1{fill:#254FA5;}
	.st2{fill:#FAFBFC;}
	.st3{fill:#CE2F31;}
</style>
<path class="st0" d="M0,0h482.7c-25,2.2-49.9,8.1-72.5,19.3c-24.3,12.4-48.9,24.1-73.1,36.7c-11.4,6-23.9,9.3-36.2,12.9
	c-20,4.6-40.7,1.9-61,2.6c-5,0.1-10.6,2.1-12.7,7c-2.5,5.8,1.4,11.8,5.3,15.9c8.7,9,17.6,17.7,26.1,26.9
	c19.7,20.3,40.1,39.9,59.4,60.5c6.6,6.6,13,13.4,19.8,19.7c4-2.6,7.9-5.3,11.8-8.1c6.9-5,14.4-8.9,21.6-13.3
	c20.4-12.4,43-21.7,66.7-25.7c17.1-3.4,34.6-4.5,52-5.1c23.4,0.3,46.5,5.5,69,11.4c8.2,2.2,16.2,5.4,24,8.7
	c17,6.8,32.5,16.6,47.9,26.5c2.9,1.8,5.8,3.4,8.8,4.9c6.6-6.2,12.7-12.8,19.2-19.2c13.7-13.3,27.1-26.9,40.5-40.5
	c7.8-8.9,16.5-16.9,24.6-25.4c6.9-6.8,13.9-13.5,19.9-21.1c3.5-4.2,3.8-10.6,1.4-15.4c-3.5-5.3-10.5-6.2-16.3-6.6
	c-14-0.5-28,0.2-42-0.4c-8.4-0.4-16.2-3.8-23.9-6.8C642.8,57.6,622.5,49,603,39c-9.3-4.8-18.9-8.8-28.2-13.6
	c-14.7-7.5-29.8-14.1-45.3-19.7c-8.4-3-17.3-4.4-26.1-5.7H973v1027H0V0z"/>
<path class="st1" d="M482.7,0h20.7c8.8,1.3,17.7,2.7,26.1,5.7c15.5,5.6,30.6,12.2,45.3,19.7c9.3,4.8,19,8.8,28.2,13.6
	c19.6,10,39.8,18.6,60.2,26.7c7.7,3,15.5,6.3,23.9,6.8c14,0.6,28-0.1,42,0.4c5.8,0.4,12.8,1.3,16.3,6.6c2.4,4.8,2.1,11.2-1.4,15.4
	c-6,7.6-13,14.3-19.9,21.1c-8.1,8.5-16.8,16.5-24.6,25.4c-13.4,13.6-26.9,27.1-40.5,40.5c-6.4,6.3-12.6,13-19.2,19.2
	c-3-1.5-6-3.1-8.8-4.9c-15.3-9.9-30.9-19.7-47.9-26.5c-7.8-3.4-15.8-6.5-24-8.7c-22.5-6-45.6-11.2-69-11.4
	c-17.4,0.6-34.9,1.7-52,5.1c-23.7,4-46.2,13.2-66.7,25.7c-7.2,4.4-14.8,8.3-21.6,13.3c-3.9,2.8-7.8,5.4-11.8,8.1
	c-6.8-6.4-13.2-13.2-19.8-19.7c-19.4-20.6-39.7-40.3-59.4-60.5c-8.5-9.2-17.4-18-26.1-26.9c-3.8-4.1-7.7-10.2-5.3-15.9
	c2.1-5,7.6-7,12.7-7c20.3-0.7,41,2,61-2.6c12.3-3.6,24.8-6.9,36.2-12.9c24.2-12.6,48.8-24.3,73.1-36.7C432.8,8.1,457.6,2.2,482.7,0z
	"/>
<path class="st2" d="M493.1,37.2c13-0.1,25.9,2.4,39,2.3c10.6,0.4,22.7,0.7,30.7,8.8c9.5,8.9,6.4,25.6-3.3,33c-3,2.3-7,2.9-9.7,5.7
	c1.4,4.6,4.1,8.7,6.5,12.9c4.9,8.2,9.7,16.6,16.7,23.3c3.1,3,7.2,4.7,11.1,6.6c-0.6,1.2-1.3,2.5-1.9,3.7c-8.9,0.1-18-0.7-26.5-3.7
	c-7.7-2.6-11.5-10.4-15.4-16.9c-3.9-6.6-6.7-13.8-10.7-20.4c-1.6-2.8-5.3-1.9-8-2.3c0,9-1.4,17.9-1.1,26.8c0.1,1.7,0.1,3.8,1.8,4.7
	c2.9,1.8,6.3,2.7,9.5,3.9c-0.1,1-0.3,2.9-0.3,3.9c-9.8-0.3-19.5-2.1-29.4-2.1c-5.1,0-10.2-0.5-15.3-1.3c0.1-1.3,0.3-2.5,0.4-3.8
	c3.4-0.8,7.5-0.6,10.1-3.1c2.3-3.6,2.1-8.1,2.7-12.1c1-14.1,2.3-28.1,2.9-42.2c0.3-6.3,1.7-12.9,0.1-19.1c-2.5-3.2-7-3.4-10.6-4.8
	C492.6,39.8,492.8,38.5,493.1,37.2z"/>
<path class="st2" d="M429,43.7c7-1.1,13.9-2.9,20.9-4.4c0.7,1.3,1.4,2.7,2.1,4c-3,1.7-6.2,2.9-9.2,4.6c-2.2,2-1.2,5.3-1.1,7.9
	c3.1,19.3,6.7,38.6,9.8,57.9c0.7,3,1.1,6.8,4.1,8.4c3.6,1.1,7.5,1,11.2,1.3c-0.1,1.6-0.3,3.2-0.4,4.7c-15,2.1-29.9,4.8-44.8,7.4
	c-0.1-1-0.3-2.9-0.4-3.9c3.1-1.7,6.8-2.8,9.2-5.4c1.5-2.7,0.7-5.9,0.4-8.8c-3.3-18.7-5.9-37.4-9.6-56c-0.8-3-1.4-6.6-4-8.5
	c-3.4-1.1-7.1-1.2-10.7-1.6c0-0.9-0.1-2.8-0.2-3.7C413.8,45.6,421.5,45.1,429,43.7z"/>
<path class="st1" d="M524.6,52c0.2-2.4,0.4-5.9,3.5-6.2c7.2-0.7,14.5,3.8,17.4,10.5c2.6,6,2.3,12.9,0.4,19c-1,3.2-3.3,6.1-6.5,7.2
	c-5.4,1.8-11.2,1-16.8,0.8C523,72.8,524,62.4,524.6,52z"/>
<path class="st2" d="M341,66.9c7.3-3.1,14.1-7.2,21.2-10.8c2,5.3,3.7,10.8,5.9,16c1.2,2.7,1.6,5.7,1.8,8.7c-1.4-0.1-2.8-0.1-4.2-0.4
	c-3.4-2.8-5.2-7.4-9.2-9.6c-4.8-1.4-9.3,1.4-13.6,3.2c-4,2.1-8.6,3.3-12,6.3c-0.6,2.3,0.8,4.4,1.5,6.5c3.8,8.1,7.5,16.2,11.3,24.3
	c6.2-1.2,11.5-4.5,17.1-7.3c2.1-1.2,4.6-2.4,5.5-4.8c0.3-2.9-0.4-5.8-0.3-8.8c0.6-1.4,2.1-2.2,3.2-3.1c2.4,3.1,4.2,6.6,5.6,10.3
	c2.3,6.3,5.8,12.1,8.3,18.4c-1.4,0.6-2.7,1.1-4.1,1.7c-3.2-3-6.3-8.7-11.5-6.8c-6.8,2.2-13.1,5.5-19.5,8.7
	c2.4,7.2,6.2,13.7,9.2,20.6c1.5,2.7,2.8,6.3,6,7.3c4.2-0.2,8.2-1.8,12.2-2.8c0.4,1.6,0.7,3.1,1.1,4.7c-11.2,5.4-22.7,9.9-33.7,15.7
	c-3.2,1.8-6.7,3.3-10.3,3.9c0.1-1.3,0.1-2.6,0.4-3.9c2.4-2.8,7.8-4.1,7.1-8.6c-1.5-8.1-6.2-15.1-9.3-22.7
	c-4.2-10.5-9.6-20.5-14.3-30.8c-2.2-4.1-3.6-8.8-6.8-12.2c-4.4-0.7-8.7,0.6-13,1.2c-0.4-1.3-0.7-2.6-1-3.8c7.3-4.2,15.5-6.7,23-10.5
	C325.9,73.7,333.4,70.1,341,66.9z"/>
<path class="st2" d="M629,60.8c0.9-1.2,1.9-2.3,2.8-3.5c8.1,3.3,15.6,7.8,23.6,11.3c13.5,6.1,26.7,13,40.7,18.1
	c-2.8,7.2-7.6,13.3-10.8,20.3c-1.7-0.5-4.4-0.6-4.5-3c0.2-3.9,1.8-7.7,1.5-11.6c-0.8-2.8-3.5-4.4-5.9-5.8c-5.8-3-11.7-6.2-18.1-7.7
	c-2.4,3.9-4.4,8.1-6.2,12.3c-2.3,5.7-6.1,10.9-7,17.2c6.1,2.3,11.9,5.7,18.1,7.7c4.7,1.6,7.2-4.1,10.1-6.7c1.6,0.8,3.2,1.7,4.8,2.5
	c-2.8,5.6-6,11-8.4,16.8c-1.4,3.4-3,6.8-4.7,10.1c-1.6-0.7-3.1-1.4-4.7-2.1c0.1-4.3,2.7-10.2-2-13c-5.5-3.3-11.4-6.4-17.7-7.7
	c-2.9,6.3-5.8,12.5-8.9,18.6c-1.6,3.3-3.4,7-2.2,10.7c3.4,3.2,8,4.8,12.1,7c4.5,2.1,9,5.2,14.2,4.4c5.9-1.1,10.1-5.8,15-8.9
	c1.9-1.7,5.9,1.1,4.4,3.4c-1.6,3.1-4.2,5.7-6.5,8.3c-2.6,2.8-5,5.8-8.2,7.9c-1.7,1.3-3.9,0.2-5.7-0.3c-5.2-1.9-10.1-4.5-15.1-7
	c-11.8-6-23.8-11.8-35.9-17.1c-4.5-1.8-9-3.8-13.3-6.1c0.4-1.3,0.8-2.6,1.2-3.9c4.2,0.4,8.2,1.7,12.4,2.3c3.3,0.7,4.8-2.9,6.2-5.2
	c5.6-10.7,10.5-21.7,15.4-32.7c3.6-7.1,7-14.4,10.2-21.7c1-2.6,2.2-5.4,1.5-8.2C635.1,64.8,631.9,63,629,60.8z"/>
<path class="st1" d="M172.4,141.4c2.9-2.4,6.9-2.5,10.5-2c3.2,0.4,5.5,2.9,7.7,4.9c16.4,15.6,32.4,31.6,48.5,47.6
	c16.5,15.4,32.2,31.8,48.4,47.6c2.1,2.1,4.3,4.1,5.9,6.6c-0.8,3.4-3.3,6.2-5.2,9c-6.6,9-12,18.8-17.4,28.5c-4.4,8-7.2,16.8-11.1,25
	c-2.9,6.3-4.6,13.1-6.4,19.7c-4.3,16.8-8.1,33.9-9,51.3c-1.7,20.5-0.7,41.1,2.4,61.4c1.8,9.4,2.7,19,6,28.1
	c3.4,12.1,9.5,23.1,15,34.2c4.6,8.7,9.7,17,14.7,25.5c3.5,6,8.4,10.9,11.7,17c-11.3,12.1-23.4,23.4-34.9,35.2
	c-18.8,18.8-36.9,38.4-56,57c-4.6,4.4-8.6,9.5-13.7,13.2c-6,4.4-15.2,1.4-18.4-5.1c-4-7.5-1.8-16.1-2.1-24.1
	c-0.3-19.2-3.8-38.2-9.1-56.6c-4.2-14.9-12.5-28-19.3-41.8c-6-11.4-12.4-22.6-18.1-34.1c-5.6-9.3-11-18.7-15.1-28.7
	c-7.8-18-11-37.6-12.6-57.1c-0.2-7.2-1.2-14.5-0.4-21.7c0.9-8.1,2-16.3,4.8-24c2.8-7.9,5.2-15.9,8.6-23.5
	c5.1-11.1,10-22.4,15.8-33.2c5.4-9.9,9.3-20.5,14.6-30.4c10.1-18.8,16.9-39.1,25.3-58.6c6.2-18.5,2.4-38.3,3.3-57.4
	C166.7,149.9,168.3,144.6,172.4,141.4z"/>
<path class="st1" d="M783.1,144.2c2.4-2,4.8-4.4,8-4.8c4.7-0.6,9.9,0.6,13,4.4c2.6,3.4,3.4,7.9,3.5,12.1c0.1,6-0.1,12,0,18.1
	c0.1,10-0.8,20.1,1.1,30.1c1.4,8.2,5.2,15.6,8,23.3c2.9,7.9,6.4,15.5,9.7,23.2c3.4,8.7,8,16.8,11.8,25.4c8,16.3,15.8,32.8,23.8,49.1
	c8.6,18.8,15.4,38.6,17.4,59.3c1.2,20.5-0.4,41.4-6.2,61.1c-7.9,22.6-20.8,42.9-31.6,64.1c-7,11.6-12.5,24-19,35.8
	c-8.7,18.7-14,38.8-16.1,59.3c-0.9,9.1-2.6,18.4-1.2,27.5c0.3,6.1,1.4,13.7-3.6,18.3c-6.1,5.7-16.1,2.8-21.5-2.5
	c-10-10.3-20.5-20.2-30.1-30.9c-7-7.3-14.2-14.5-21.3-21.7c-10.7-11.9-22.3-23-33.5-34.4c-5.1-5.2-10.7-10-15-15.9
	c6.4-9,12.9-18.1,18.5-27.6c11.5-20.7,23.2-41.9,27.3-65.5c4.6-23.4,6.1-47.4,3.9-71.2c-0.8-18.9-4.2-37.7-9.6-55.9
	c-2.9-8.2-5-16.6-8.5-24.6c-7.3-16-16.7-30.9-26.5-45.4c-1.9-2.8-3.5-5.7-5.1-8.6c10.9-11.5,22.6-22.3,33.5-33.8
	c16-15.7,31.5-31.8,47.8-47.2C768.5,158.3,775.6,151,783.1,144.2z"/>
<path class="st1" d="M437,171.7c49.1-11.6,102.3-6.7,147.8,15.3c-2.3,9.7-5.4,19.3-9,28.6c-17,0.1-34-0.3-51,0.2c1,1.6,2,3.2,3,4.7
	c-16.6,1.2-33.3,2.6-49.4,7.1c-5.5,1.5-10.7,3.7-16.1,5.3c-4,1.2-8.2,0.8-12.3,0.5c-3.2-12.2-8.1-23.9-11.6-36
	c-1-3.7-2.5-7.3-4.3-10.6c-5.1,15.6-10.2,31.2-15.5,46.7c-17.6,0.7-35.2-0.6-52.8,0.7c5.8,5.8,12.8,10,19.1,15.2
	c7.5,6.4,15.6,12,22.9,18.7c-1.8,8.3-9.5,12.8-14.1,19.4c-4.1,5.7-8.2,11.4-11.5,17.6c-4.6,8.8-9.9,17.3-13.3,26.7
	c-1,2-1.6,4.7-3.8,5.7c-2.6,0.5-3.1-2.7-4-4.4c-3.6-10.6-7.2-21.3-10.9-32c-1.1-3.1-2.5-6.2-4-9.1c-3.8,7-5.5,14.7-8,22.2
	c-1.8,5.4-3.8,10.7-5.5,16.2c-0.8,2.3-1.4,4.7-2.8,6.8c-5.2,0.7-10.5,0.2-15.8,0.3c-12.4,0.1-24.8-0.2-37.2,0.2
	c12,9.6,24.1,19,36.3,28.4c2.1,1.7,4.1,3.5,6,5.3c-1.4,7.3-4.5,14.1-6.5,21.3c-3.1,10.5-7.3,20.6-9.6,31.4
	c13.9-10,27.5-20.5,41.3-30.6c2.3-2.2,5.6,0.2,6.2,2.8c0.3,3.7-0.6,7.4-0.8,11c-0.8,11.8,0.2,23.7-0.2,35.6
	c-18.1,3.4-36-2.1-52.9-7.9c-8.5-3.2-17.2-6.2-24.8-11.4c-3-2-6.1-3.8-9.5-5.3c-0.9-3.9-1.6-8-1.6-12c-0.1-12-0.7-24,1.3-35.9
	c2.9-27.2,10.3-54.1,22.8-78.4c3.9-7.7,8.1-15.2,12.7-22.4c6.6-10.1,14.5-19.4,22.2-28.7c9.2-9.5,18.4-19.1,29.1-26.9
	c15.7-12,32.8-22.3,51-30C411.5,178,424.3,174.7,437,171.7z"/>
<path class="st1" d="M602,196.1c4.3,1.8,8.3,4.1,12,6.9c5.2,3.9,11.2,7.1,15.4,12.1c-6.9,0.1-14.2,1.4-21-0.5
	C605.4,208.9,603.7,202.4,602,196.1z"/>
<path class="st2" d="M751.5,225.1c7.8-0.9,15.7-0.2,23.5-0.5c6.1,0,12.9-0.6,18,3.4c4.5,3.3,5.9,10.3,2.8,14.9
	c-2.3,2.9-5.4,4.8-8.3,7c3.7,6,7.8,11.8,12.9,16.7c2.8,2.8,7.3,3.2,9.7,6.5c-4.7,0.6-9.4,0.7-14,0.3c-2.8-0.2-5.7-0.9-7.7-2.9
	c-4.9-4.6-7.9-10.8-11.9-16c-1.1-1.7-3.2-2.1-5-2.7c-0.4,5.8-0.3,11.5,0.2,17.3c2.5,1,4.9,2.1,7.2,3.3c-9,2-18.3,1.1-27.4,0.6
	c2.2-1.5,4.5-2.8,6.8-4c0.7-13.3,1.7-26.7-0.1-40C755.8,228.1,753.5,226.8,751.5,225.1z"/>
<path class="st1" d="M771.5,228.3c2.5,0.1,5.2-0.3,7.7,0.6c6,2.7,8,11.3,4.3,16.6c-2.8,3.8-8,3-12.1,3.1
	C771.1,241.9,771.1,235.1,771.5,228.3z"/>
<path class="st1" d="M640.9,232.8c1.6-1.3,3.1-2.9,5.2-3.4c2.1,0.3,3.5,2.2,5,3.6c16.5,17.4,30.9,36.8,41.7,58.3
	c7.4,16.6,15.1,33.3,18.1,51.4c-10.9-2.5-20.9-8-32-9.3c-21.9-2.9-44.3-3-66.3,0.4c-8.6,1.2-17,3.6-25.4,5.2
	c-4.5-1.1-8.5-3.7-12.9-4.9c-14.2-4-29.3-4.8-43.7-1.8c-10.7,2.2-21.3,5.2-31,10.3c-3.7,1.9-7.2,3.9-10.9,5.8
	c0.2-19.3,6.9-37.6,13.6-55.5c5.8-12.3,11.2-25.8,22.3-34.4c5.8-5,13.8-5.6,21-5c-2.6,11.4-4.9,23-6.6,34.6
	c-1,7.7,0.7,15.8,4.6,22.5c8.5,13,24.2,20.5,39.6,19.9c7.6-0.4,15.5-1.4,22.2-5.2c7.4-4.2,14-10.2,18-17.8c1.9-3.5,3.6-7.1,5.3-10.6
	c2.5,1.1,5,2.4,7.3,3.8c-2.2-6.8-5.2-13.4-5.4-20.6c-0.3-5.5-1.2-11-3.5-16c-2.2-4.7-4.7-9.3-6.6-14.1
	C626.5,243.4,634.2,238.7,640.9,232.8z"/>
<path class="st3" d="M508.8,232.8c9.6-1.9,19.5-1.1,29.3-1.2c15.2,0.8,30.4,3.3,45,7.7c9.5,3.3,19.8,7.1,26.2,15.4
	c5,7,9.4,14.9,10.2,23.6c0.5,5.8,0.7,11.9-2.2,17.1c-4,7.7-8.6,16-16.8,19.9c-7.6,4.2-16.6,4.9-25,3.7c-7.7-1.5-15.4-4.8-20.5-11
	c-4.4-5.2-6-12.4-5-19.1c1.2-8.5,2.4-17,4.9-25.2c1.8-6.6,4.7-13,4.7-19.9c-12.3-3-26.1-4-37.4,2.6c-10.4,6.3-18,16.4-23.5,27.1
	c-3.3,6.5-6.6,13-8.9,20c-4.8,15.3-10.4,30.5-12.1,46.5c-1,9.9-2.5,19.8-1.9,29.7c6.9-2.9,12.4-8.2,18.9-11.9
	c15.4-9.6,33.2-14.9,51.2-16.2c15.8-0.5,32.1,3.9,44.4,13.9c5.3,4,10.3,8.5,14,14.1c5,6.9,6.5,15.6,8.5,23.8
	c1.4,11,2.6,22.3-0.1,33.2c-2,8.5-4.3,17-6.6,25.5c-4.4,15.4-12.3,29.6-21.8,42.3c-4.9,6.7-11.1,12.2-16.9,18.1
	c-7.3,7.3-16.7,12-26,16.1c-9.3,3.9-18.5,8.1-28.4,10.1c-10.6,2.2-21.2,4.7-32,4.9c-25.9,2-52.7-3.3-75.1-16.7
	c-13.8-9.7-25.4-22.8-32.7-38.1c-6.3-11.5-9.2-24.5-11.3-37.3c-0.8-11.1-1.5-22.3-1.4-33.5c-0.1-11.5,2.1-22.9,3.9-34.2
	c2.9-14.9,6.4-29.9,12.7-43.8c6.3-15.5,13.9-30.5,24-43.9c15.9-20.4,35.3-38.7,58.6-50.3C475.3,238.8,492,235.4,508.8,232.8z"/>
<path class="st2" d="M174.6,256.6c16.7-0.3,33.4,0.1,50.2-0.2c-0.3,5.5-0.8,11.1-1.9,16.6c-1-0.2-2-0.4-2.9-0.6
	c-1.1-3.4-1.4-7.5-4.2-10c-5.8-1.7-12.1-0.6-18.1-0.6c-0.2,7.6-0.1,15.3-0.2,22.9c5.6,0.2,11.3,0.2,16.9-0.2
	c1.1-2.3,2.2-4.6,3.3-6.9c1-0.1,2-0.3,3-0.4c0,6.9,0,13.8,0,20.7c-0.7,0.1-2,0.4-2.6,0.5c-1.2-2.5-2.5-5.1-3.7-7.6
	c-5.6-0.3-11.1-0.4-16.7-0.2c0.3,6.9-1.1,14.2,0.8,20.9c2.7,1.5,5.9,1.8,8.8,2.4c0.2,0.9,0.3,1.8,0.5,2.7c-10.9,0.1-21.8,0-32.6,0
	c0.1-0.6,0.3-1.7,0.4-2.2c2.4-0.9,4.9-1.8,7.4-2.7c1.1-10.9,0.3-21.8,0.6-32.7c-0.2-5.5,0.7-11.2-0.8-16.5c-2.5-1.8-5.5-2.6-8.4-3.6
	C174.4,258.3,174.6,257.1,174.6,256.6z"/>
<path class="st2" d="M754.1,284.6c3.6-0.7,7.2-1,10.9-0.9c10.5,0.3,20.9,0,31.4,0c0,4.1-0.3,8.1-0.9,12.1c-0.9-0.1-1.9-0.2-2.8-0.3
	c-1.4-2.7-1.9-6.8-5.3-7.7c-4.3-0.7-8.7-0.3-13-0.3c-0.3,6-0.3,12.1-0.1,18.1c4.3,0.1,8.6,0.1,12.8-0.2c1.3-2.4,2.8-4.8,5.4-6
	c0.4,5.9,0.4,11.9-0.2,17.9c-2.5-1.8-4.4-4.2-6-6.7c-4-0.2-8-0.2-12-0.2c-0.2,5.8-0.2,11.5,0.1,17.3c5.6,0.7,11.6,1.7,17.2,0.1
	c3.2-2.1,4.7-6,7.6-8.5c0.4,0,1.2,0,1.6,0c0.1,4.4-0.5,9.7-4,12.8c-5.8,1.2-11.9,0.3-17.8,0.5c-8.9-0.3-17.9,0.6-26.8-0.5
	c2.6-1.8,5.7-2.7,8.5-4.3c1.2-1.9,0.7-4.5,0.9-6.7c-0.1-10.8,0.2-21.6-0.3-32.3C758.9,287.4,756.5,286,754.1,284.6z"/>
<path class="st2" d="M185,329.9c7-0.7,14-0.1,21-0.4c3.4-0.2,6.9,0.2,10.2,1.2c-3.2,2.3-9,3.2-8.5,8.2c-0.3,11.3,0.1,22.7-0.1,34.1
	c0.1,3.8-0.4,7.7,1,11.3c2.2,1.6,5,2,7.6,2.7c0.2,0.5,0.6,1.6,0.8,2.2c-5.9,1.8-12,0.2-18,0.5c-5.1,0.2-10.3,0.7-15.4-0.3
	c2.2-2.3,5.3-3.4,8-4.8c2.1-0.9,1.6-3.7,1.9-5.5c0.1-11.7,0-23.4,0.1-35.1c-0.1-2.7,0.2-5.4-0.7-8C190.7,333.5,186.7,333,185,329.9z
	"/>
<path class="st3" d="M612.6,333.7c21.9-3.4,44.3-3.3,66.3-0.4c11.2,1.2,21.2,6.8,32,9.3c5,15.2,8.8,31.6,5.3,47.5
	c-9.5-1.5-18.3-5.6-27.7-7.7c-15.2-3.9-30.8-6.1-46.4-5.8c-6.8,0-13.5,2.4-20.4,1.8c-2.3-3.6-3.2-7.9-5.4-11.5
	c-6.9-11.8-18-20.3-29-28C595.6,337.3,604,334.9,612.6,333.7z"/>
<path class="st2" d="M770.3,343.3c7.5-3,15.8-1.7,23.4,0c-0.1,3.9-0.5,7.8-1.1,11.6c-0.6-0.1-1.7-0.1-2.3-0.2
	c-1.6-3.2-2.5-7.3-5.9-9.1c-3.4-1.6-8-1.7-11,0.9c-2.7,2.6-2.7,7.5,0.1,10c6.4,5.9,16.2,7.4,20.9,15.2c2.6,5,2,12.3-2.7,15.9
	c-4.8,4.2-11.4,5.5-17.7,5.2c-4.1-0.2-8.6-0.3-12.1-2.7c-2.8-4-2.9-9.3-2-13.9c3,3.4,4.8,7.6,8.2,10.7c3.4,2.9,8.3,3.2,12.6,2.4
	c4.4-1.1,5.2-7.3,2.5-10.4c-5.4-6.5-14.7-8.3-19.9-15.1c-2.2-2.8-2-6.6-1.8-9.9C761.5,348.9,766,345.3,770.3,343.3z"/>
<path class="st2" d="M496.3,372.9c4.8-1,10.5,0.3,13.1,4.7c3.8,6.5,3.5,14.4,2.4,21.7c-1.8,15.2-2.4,30.5-4.6,45.6
	c-2.7,18.6-5.5,37.1-8.3,55.7c-1.3,9-5.2,17.5-10.7,24.6c-3.9,4.5-9.2,8.4-15.2,9.1c-6.3-0.5-12.8-5-14-11.5
	c-1.3-5.9-1.6-11.9-2.2-17.9c-0.9-8.7,0.6-17.3,0.9-26c0.8-8,0.8-16,2-23.9c2-12.9,2.9-26,6.4-38.6c3-12.5,6.5-25.5,14.8-35.6
	C484.7,376.2,490.4,373.6,496.3,372.9z"/>
<path class="st1" d="M492.3,385.5c2.5-1.4,5.4-1.3,8.1-1.3c0.2,0.7,0.6,2.1,0.9,2.8c-5,4-10.2,8.6-16.9,8.9
	C486.4,392,488.2,387.5,492.3,385.5z"/>
<path class="st3" d="M484.4,395.9c6.7-0.4,11.9-4.9,16.9-8.9c0.4,8.7-1.5,17.3-2,26c-0.9,6.3-0.6,12.8-1.9,19.1
	c-0.5,2.9-3.4,4.3-5.6,5.8c-6.9,4.5-13.6,9.4-20.4,14.1c1.2-11.4,2.5-22.9,5.5-34C478.9,410.5,480.6,402.7,484.4,395.9z"/>
<path class="st2" d="M769.3,403.1c10.4-3.8,21.8-2.6,32.5-1c-0.2,4.7,0.1,9.8-2.5,14c-2.4-3.9-3.4-9.5-8.2-11.1
	c-6.2-2.3-14.3-2.2-19,3c-4.9,5.3-5.7,13.1-5.1,20c0.6,5.4,2.2,11,6.1,14.9c4.8,4.5,12,5.8,18.2,4.1c4.8-1.9,7.5-6.7,11.2-10
	c1.5,5.1-2.1,10.4-6.2,13c-7.6,2.6-16,2.4-23.9,0.7c-6.3-1.3-12.5-4.7-16-10.2c-5.1-8.1-5.3-19.2-0.2-27.4
	C759.3,408.5,763.9,404.9,769.3,403.1z"/>
<path class="st2" d="M171.3,403.5c12.6,0,25.2-0.2,37.8,0c9.8-0.1,17.3,11.1,13.7,20.1c-1.5,4.9-6.5,7.1-10.1,10.2
	c-0.8,2.6,1.7,4.7,2.9,6.8c5.9,7.7,11,17.3,20.9,20.4c0.2,0.9,0.3,1.8,0.5,2.8c-8.3,0.5-18.5,1.8-24.9-4.6
	c-5.7-6.7-8.9-15-14.7-21.6c-0.9,0.1-2.7,0.2-3.6,0.3c0,6.1-0.6,12.2,0.2,18.2c0.2,3.9,4.9,3.9,7.6,5c0.1,0.9,0.2,1.8,0.3,2.7
	c-7.3,0.2-14.6-0.1-21.9,0.1c-3.2,0.1-6.4-0.2-9.5-0.9c2.3-2,5.3-3.1,7.9-4.6c1.3-1.4,1-3.4,1.2-5.2c0.1-12.4,0-24.7,0.1-37.1
	c-0.2-2.4,0.2-5.2-1.2-7.3c-2.1-1.4-4.6-1.8-6.9-2.5C171.4,405.2,171.3,404.3,171.3,403.5z"/>
<path class="st1" d="M193.7,407.5c4.3-0.2,9.3-0.1,12.3,3.5c4,4.9,4.4,12.3,1.9,18c-2.9,5.1-9.6,3.4-14.4,3.7
	C193.5,424.3,193.4,415.9,193.7,407.5z"/>
<path class="st3" d="M262.2,418c3.3,1.4,6.5,3.2,9.5,5.3c7.6,5.2,16.3,8.2,24.8,11.4c16.9,5.8,34.9,11.3,52.9,7.9l0.8-0.1
	c1.1,10.4,2.1,20.8,5,30.9c1.6,6.6,4.9,12.7,6.9,19.2c-14.9,0.8-29.7-1.3-44.3-3.7c-14.7-2.2-28-9.5-40.6-16.9
	c-4.7-2.4-5.5-8.2-7.2-12.7C266.1,445.8,262.8,432,262.2,418z"/>
<path class="st3" d="M624.7,423.7c9.4-0.3,18.8-0.3,28.3-0.4c13,0,25.9,1.8,38.3,5.6c7.7,2.4,15.7,3.3,23.4,5.5
	c-1.1,8.3-3.8,16.2-6.5,24.1c-2.3,6.7-4.5,13.5-8.5,19.4c-7.1-2.3-14-5.3-21.4-6.5c-19.1-4-38.8-3.2-58.1-1.2
	c-3.1,0.3-6.2,0.5-9.3,0.6C617.3,455.6,621.3,439.7,624.7,423.7z"/>
<path class="st2" d="M748.4,461.7c8.7-0.4,17.4-0.4,26,0c-2,1.6-4.3,2.8-6,4.8c-1.4,3.3-0.8,7.1-0.9,10.6c0.2,7.2-0.7,14.7,1.8,21.7
	c2,5.4,8.4,7.1,13.6,6.8c4.1-0.3,9-1.7,10.8-5.8c2.4-5.6,1.8-11.8,1.9-17.7c-0.1-4.9,0.5-10-0.6-14.8c-1.7-2.7-5.2-3.6-7.7-5.4
	c6.8-0.6,13.5-0.5,20.3-0.1c-2.3,2.2-6.2,3.8-6.1,7.5c-0.5,8.6-0.1,17.3-1.4,25.8c-1.1,6.9-6.3,13.4-13.3,15
	c-6.4,1.6-13.1,1.5-19.4-0.3c-6-1.7-11-6.9-11.8-13.2c-1-9.2,0.1-18.4-0.8-27.6C754.9,465.2,750.8,463.8,748.4,461.7z"/>
<path class="st2" d="M174,476.9c16.1-0.6,32.3-0.1,48.5-0.2c-0.4,4.9-0.9,9.9-1.3,14.8c-0.8,0-2.4-0.1-3.2-0.1
	c-1.1-3.1-1.4-7-4.2-9.1c-5.6-1.6-11.5-0.6-17.2-0.6c-0.2,7.3-0.2,14.5-0.1,21.8c4.7,0.1,9.4,0.5,14.1,0c3.2-0.3,3.3-4.3,4.5-6.6
	c0.8-0.1,2.3-0.2,3-0.3c0.1,6.6,0,13.2-0.2,19.8c-0.7,0-2.1-0.1-2.8-0.1c-1.2-2.2-2.2-4.6-4-6.3c-4.6-1.1-9.4-0.4-14-0.5
	c-0.7,7.3-0.9,14.7,0.4,21.9c6.3,0.2,12.7,1,18.9-0.1c4.3-2.1,5.9-7.1,8.1-10.9c1.3,0.1,2.7,0.1,4,0.2c-1.2,5.5-3.1,10.8-5.2,16
	c-9.8,1.5-19.6,0.3-29.4,0.2c-7.3-0.2-14.6,0.8-21.9,0c0.1-0.6,0.2-1.9,0.2-2.5c2.9-1,6-1.6,8.7-3.2c2-1.2,1.2-4,1.5-6
	c-0.2-14.4,0.3-28.9-0.3-43.3C179.3,480.6,175.5,480.1,174,476.9z"/>
<path class="st3" d="M471.9,499.9c5.3-3.6,10.7-7.2,16.6-9.7c0.5,11.1-4.1,21.9-11,30.4c-1.6,2.3-6.2,3.5-7.3,0.3
	c-1.9-5-1.9-10.5-2-15.9C467.9,502.5,470.2,501.1,471.9,499.9z"/>
<path class="st3" d="M606.7,519.5c12-2.2,24-4.7,36.3-4.2c10.9-0.5,22,0.8,32,5.4c-3.4,7.6-9,13.9-13.7,20.7
	c-5.9,6.4-11.8,12.9-19,17.8c-3.8,2.9-8.8,2.3-13.3,2.3c-15-0.5-29.6,3.3-44,7.3c-13.4,3.8-25.7,10.3-38.2,16.2
	c-14.8,6.4-26.1,18.5-36.3,30.5c-1.3,1.4-2.7,3-4.7,3.5c-7.8,1.8-16,1.2-23.9,2.1c-6.9,0.8-13.8-0.5-20.6-1.2
	c-9.5-1.2-19.2-2.4-28.3-5.8c9.2-5.9,18.9-11,28-17c13.2-8.6,27.2-16.1,40.2-24.9c9.2-5.7,18.1-11.9,27.4-17.4
	c5.3-3,10.7-5.8,15.8-9.2C563.3,533.1,584.5,524.1,606.7,519.5z"/>
<path class="st2" d="M754.5,520.3c14-0.3,28,0.3,41.9-0.3c0.2,4.5,0.1,9.2-2.2,13.2c-1.8-2.8-3.3-5.7-4.8-8.6
	c-5-0.4-10-0.5-14.9-0.2c-0.3,5.8-0.3,11.7-0.1,17.5c4.3,0.3,8.9,1,13.1-0.5c1.4-1.2,1.8-3.3,2.6-4.9c0.9-0.2,1.8-0.3,2.7-0.5
	c0.2,5.3,0.1,10.7,0,16c-0.6,0-1.7,0-2.3,0.1c-1.3-1.8-2.4-3.8-4.2-5.2c-3.8-1-7.9-0.4-11.8-0.5c-0.2,6-0.2,12,0.2,17.9
	c5.6,0.2,11.3,1,16.8-0.1c4.1-2,5.1-7.6,9.8-9c-0.6,4.6-1,10-4.6,13.3c-3.4,1.2-7,0.8-10.6,0.6c-11.2-1-22.5-0.3-33.8-0.5
	c0-0.5,0.1-1.6,0.2-2.1c2.9-0.7,6.1-0.8,8.7-2.5c1.1-7,0.3-14.1,0.5-21.2c-0.2-6,0.6-12.2-0.5-18.1c-2-1.3-4.4-1.9-6.6-2.7
	C754.5,521.8,754.5,520.8,754.5,520.3z"/>
<path class="st3" d="M311.9,531.4c15.9,3,31.9,6.4,48.2,6.3c9.9-0.2,20,1.2,29.6-1.9c3-0.7,6.5-2.2,9.5-0.5
	c4.2,2.3,7.8,5.6,12.2,7.5c6.8,3.1,14.1,4.6,21.1,7c7,2.4,14.4,3.1,21.6,4.9c-5.7,4.5-12.4,7.2-18.9,10.4
	c-12,6.3-25.3,9.2-38.2,13.3c-8.2,2.7-16.7,4.7-25.2,5.9c-4,0.7-7.4-2.2-10.4-4.5c-9.9-8.8-20.9-16.4-30.9-25.1
	C322.7,548.3,314.6,541.3,311.9,531.4z"/>
<path class="st1" d="M296.9,632.9c14.6-14.2,28.9-28.8,43.1-43.3c9,4.4,16.9,10.9,25.6,15.9c11.3,7.2,23.6,12.6,35.7,18.2
	c10.4,4.2,21.4,6.9,32.4,8.9c12.1,2.1,24.1,5.1,36.4,5.8c20.6,1.8,41.5,1.4,62-2c17.5-2.5,35-6.5,50.9-14.3
	c18.6-9.1,35.7-21,53-32.5c12,11.1,22.9,23.4,34.5,34.9c11.5,11.5,22.8,23.2,34.6,34.4c11,10.7,21.2,22.1,32.4,32.6
	c2.7,2.6,5.5,5.5,5.8,9.5c1,7.4-6.3,13.8-13.3,13.7c-10.4,0.3-20.7-0.6-31.1,0c-12.9,1.1-25.5,4.3-37.8,8.5
	c-6.4,2.1-12.8,4.2-18.8,7.2c-14.1,7-28.8,12.8-42.7,20.3c-10.3,5.1-20.6,10-30.7,15.4c-13.7,8-28.7,13.9-44.3,16.8
	c-14.9,3.3-30.3,4.4-45.6,3.4c-21.3-2.6-42.1-9.2-61.3-18.9c-9.4-4.2-18.7-8.8-28.1-13.1c-8.5-4.3-16.9-8.7-25.6-12.4
	c-17.5-8.7-35.5-16.8-54.1-22.8c-14.2-4.7-29.2-3.2-43.9-3.4c-8.9-0.1-18.2,0.3-26.7-3.1c-4.6-1.7-5.3-7.2-5-11.5
	c-0.1-4.9,4-8.3,6.9-11.7c6-7,12.9-13,19.3-19.7C272.9,657.5,284.6,645,296.9,632.9z"/>
<path class="st2" d="M338.3,613.8c5.8,1.1,10.8,4.3,16.2,6.7c13.2,6.2,27.4,10.4,40,18c5.7,4.1,11.2,8.9,14.9,14.9
	c7.6,15.5,4.8,34.9-5.4,48.4c-5.8,6.8-12.6,13.4-21.5,15.6c-16.2,5-33.4,0.3-48.1-7c-10.8-5.5-22-10-32.8-15.4
	c0.2-1.3,0.4-2.6,0.7-3.9c4.4,0.4,8.8,2,13.2,1.2c3.6-2.1,5.2-6.2,6.9-9.8c4.4-10.8,9.8-21.2,14.2-32c3-7.3,7.1-14.2,9-21.8
	c1.6-5.6-4.8-8.1-8.2-11C337.5,616.3,337.9,615.1,338.3,613.8z"/>
<path class="st2" d="M622.9,630.2c7.2-2.5,14.6-5.1,20.6-10c1.1,3.1,2,6.2,2.6,9.4c1.1,6,3.1,11.9,3.8,18.1c-1.5,0.4-3,0.8-4.5,1.1
	c-2.7-4-5-8.3-8.4-11.8c-2.8-3-7.2-1.3-10.5-0.4c-3.5,1.4-7.6,2.3-10.2,5.3c0.8,4.6,2.9,8.8,4.6,13.1c4.5,11.8,8.6,23.6,13.7,35.1
	c2.9,6.4,3.8,14.2,9.1,19.2c4.1,1.2,8.4-0.1,12.5-0.7c0.5,1.4,1,2.8,1.5,4.3c-11,4.4-22.3,7.8-33.1,12.6c-4.8,2-9.5,4.5-14.8,5.2
	c-0.1-1.4-0.2-2.8-0.3-4.3c3.9-2.5,8.9-4.2,10.9-8.6c0.6-4.8-1.9-9.3-3.3-13.8c-6.8-18.3-14-36.5-20.6-55c-5.6,1.3-11.2,3-16,6.2
	c-2,1.2-2.9,3.6-3.2,5.8c-0.8,5-0.5,10.2-0.8,15.3c-1.8,0-3.7,0-5.5,0c-1.4-8.6-4.1-16.9-5.6-25.5c12.2-2,23.3-7.7,34.8-11.8
	C607.8,636.2,615.5,633.5,622.9,630.2z"/>
<path class="st1" d="M368.2,634.1c1.3-0.7,2.7,0.3,3.9,0.5c9.5,3.1,17.2,11.1,19.4,20.9c2.4,10.8-0.2,22.2-5,32
	c-4.3,9.1-11,17.3-19.9,22.2c-9.1,4.8-21.5,1.3-26.7-7.6c-1.5-3.3-0.3-7.1,1-10.3c8-18.2,16-36.5,24.5-54.5
	C366.1,636.1,366.8,634.7,368.2,634.1z"/>
<path class="st2" d="M438.9,653.1c7.3,1,14.4,3,21.8,4.1c7.4,1.2,14.9,1.8,22.2,3.2c0,1.4,0,2.8,0,4.1c-3.7,0.5-7.3,1-11,1.4
	c-2.8,7.9-3.8,16.2-5.1,24.5c-2,13.2-4.3,26.4-6,39.6c-0.3,2.9-0.7,6,0.1,8.9c2.3,3.5,7.3,3.6,10.1,6.4c0.1,1.2,0.1,2.4,0.1,3.6
	c-7.6-0.3-15.1-2.3-22.6-3.4c-8-1.4-16.2-1.9-24.3-3.3c0.4-1.5,0.5-3,1.5-4.3c3.4-0.8,7.1-0.5,10.4-1.8c2.1-2,2.6-5,3.3-7.7
	c3-15.7,5.3-31.4,7.7-47.2c0.7-6.1,2.5-12.4,1.1-18.5c-2.8-2.6-6.7-3.2-9.8-5.2C438.4,656,438.6,654.5,438.9,653.1z"/>
<path class="st2" d="M518,657.1c11.4-4,23.8-3,35.6-1.8c0,7.4-0.1,14.7-0.2,22.1c-1.6,0.1-3.3,0.2-4.9,0.3
	c-2.2-5.6-3.8-12.4-9.4-15.7c-4.2-2.3-9.5-2.2-14.1-1c-5.7,1.8-9.3,8.1-8.1,14c0.7,4.5,3.7,8.3,7.5,10.6c9.2,5.8,19.8,9,28.6,15.5
	c4.8,3.5,8.3,8.9,9.2,14.8c1.7,8.5-1.5,17.5-7.5,23.6c-6.6,6.2-15.5,9.8-24.5,10.1c-5.8,0.2-11.7,0.3-17.5-0.5
	c-3-0.5-6.9-1.2-7.8-4.6c-2.4-6.9-4.5-14-4.7-21.4c1.5-0.3,3-0.7,4.4-1c3.3,7,6.8,14.5,13.9,18.4c6.6,3.7,15.8,4.6,22.1-0.1
	c3.6-2.6,3.5-7.5,3.1-11.4c-0.2-3.8-3-6.6-5.7-8.9c-9.4-7.7-22-10.5-30.5-19.5c-5.9-5.4-8.2-13.8-7.6-21.6
	C500.7,668.8,508.5,660.3,518,657.1z"/>
<path class="st2" d="M679.5,677.8c3.6-0.9,8-1,10.9,1.7c3.4,3.1,5.9,7.7,4.8,12.4c-0.9,4.1-3.9,8.3-8.3,8.8
	c-3.6,0.4-7.6,0.4-10.5-2.1C669.6,693.3,671,680.5,679.5,677.8z"/>
<path class="st1" d="M442,831.8c19-0.3,38-0.3,57-1.1c27,0.9,54,0.8,81,1c20.7,0.9,41.3,1.3,62,2c11.6,0.9,23.4,0.2,35,1.4
	c28.8,0.9,57.5,3.9,86.1,7c5.5,0.7,11.2,1.1,16.1,3.8c6,3.3,10,10.9,7.5,17.7c-5.2,14.6-13.6,27.7-20.5,41.5
	c-6.2,12.1-13.6,23.5-19.6,35.7c-8.2-0.9-16.2-3.4-24.4-3.8c-32.4-2.1-64.7-5.1-97.1-5.8c-8-0.9-16-0.6-24-1c-13-1.3-26-0.6-39-0.8
	c-35,0-70-0.4-105,0.2c-9.3,0.9-18.5,0.8-27.8,1.1c-9.7,1.1-19.5,0.6-29.1,1.6c-21.4,0.5-42.7,2.7-64.1,4.8
	c-19.5,1.5-38.8,5.1-58.2,7.9c-11,1.4-22.2,3.6-33.3,1.9c-7.8-0.7-12.8-7.7-16.4-13.9c-4.5-8.8-9.1-17.5-13.7-26.1
	c-4.5-8.2-7.5-17.1-12.1-25.2c-3.1-5.9-6.7-11.6-9.1-17.9c-1.3-3.6-1.1-9.2,3.2-10.4c7.2-2.9,15-3.8,22.7-5
	c13.4-1.9,26.7-4.4,40.1-5.6c15.8-1.5,31.7-3.2,47.5-4.8c14.4-0.7,28.9-1.5,43.3-2.4c13.1,0,26-1.8,39.1-2
	C406.6,831.9,424.4,832.8,442,831.8z"/>
<path class="st2" d="M483,860.9c4.5-5.1,11.6-6.6,18.1-6.4c4.9,0.2,10.2,1,13.9,4.6c2.8,2.6,4.2,6.2,5.5,9.7
	c-3.6,1.2-7.2,2.2-11,2.9c-2.1-2.1-4-4.5-6.7-5.9c-4.3-1.7-9.2,1.1-10.7,5.3c-1.9,5.3-2,11.4,0.1,16.6c1.8,4.4,8,6,11.8,3.2
	c2.2-1.9,3.6-4.5,5.7-6.5c4-0.9,7.8,1.4,11.4,2.8c-1.2,5.2-3.5,10.5-8.3,13.3c-5.8,3.3-12.9,3.3-19.3,2.1c-9-1.5-15.6-9.9-16.6-18.7
	C475.9,876,477,866.9,483,860.9z"/>
<path class="st2" d="M413.3,857c4.2-0.5,8.3-0.6,12.5-0.6c0.8,7.9,0.1,15.9,0.6,23.9c3.2-3.3,5.5-7.5,9.1-10.4
	c4.7-1.6,9.7-0.8,14.5-0.1c-2.9,3.5-6.5,6.4-9.3,10.1c-1.2,1.6-0.1,3.5,0.6,5.1c3.2,6.2,8,11.5,10.1,18.2c-4.4,0.4-8.9,0.5-13.4,0.3
	c-2.4-4.3-4.8-8.6-7.2-13c-1.4,1.3-3.2,2.3-4,4.1c-0.7,3-0.6,6.2-0.8,9.3c-4.2,0.5-8.4,0.6-12.7,0.4
	C413.3,888.5,413.2,872.7,413.3,857z"/>
<path class="st2" d="M660.6,864.5c3.3-2.5,7.3-3.8,11.1-5.5c0,4.2,0,8.3,0.4,12.5c2.2,0.4,4.3,0.7,6.5,1.1c0,2.9-0.1,5.8,0,8.7
	c-2.3,0.2-4.8,0.3-7,1.2c-1.3,4.8-0.8,9.9-0.2,14.8c2.1,0.4,4.2,0.8,6.3,1.2c0.4,2.9,0.7,5.9,0.4,8.9c-6.1-0.1-14,1.5-18.1-4.3
	c-3.3-6.4-0.7-14-1.8-20.8c-1.4-0.9-3-1.6-4.5-2.3c0-2.7,0-5.4-0.1-8.1c1.6-0.4,3.1-0.8,4.7-1.2C659,868.6,659.1,866.2,660.6,864.5z
	"/>
<path class="st2" d="M318.5,863.5c4.3-0.7,8.6-1,12.9-1c0.1,16,0.2,32,0.3,48c-4,0.3-7.9,0.7-11.9,1c-0.6-4.1-1.1-8.3-1.1-12.4
	C318.6,887.2,318.4,875.3,318.5,863.5z"/>
<path class="st2" d="M271.1,877.1c5-8.5,15.5-12.3,24.9-11.6c7,0.4,13.3,5.7,14.9,12.5c-3.5,1.4-7,3.6-10.8,3.6
	c-3-1.7-5.2-5.6-9.1-5c-4.3,0-7.5,3.8-8.5,7.8c-1.2,5.1-1.2,10.7,0.5,15.7c1.8,5,8.9,5.7,12.5,2.5c2.2-2.3,3.1-5.4,4.4-8.2
	c4.1,0.4,8.1,1.2,12.1,2.3c-0.9,7.3-5.6,14.4-12.6,17c-5.2,2-10.9,2.4-16.4,1.7c-8.1-1.3-14.1-8.9-15.2-16.8
	C266.9,891.3,267.2,883.5,271.1,877.1z"/>
<path class="st2" d="M539.3,868.4c5.7-1.3,11.9-0.6,16.9,2.3c8.3,5,9.8,17.4,4.6,25.1c-7,11-25.4,10.3-32.3-0.4
	C521.6,885.9,527.5,870.4,539.3,868.4z"/>
<path class="st2" d="M570.4,869.2c4.1-0.1,8.3-0.1,12.4,0c0.2,6.9-0.6,13.8,0.1,20.6c0.2,2.6,3.1,5.3,5.7,3.9
	c2.9-0.9,3.4-4.2,3.6-6.8c0.4-5.9,0.2-11.7,0.3-17.6c4.3,0,8.7,0,13,0c0,11.4-0.4,22.8-0.1,34.2c-3.9,0.1-7.8,0.1-11.7-0.1
	c-0.4-1.2-0.7-2.3-1.1-3.5c-4.1,2.4-8.7,5.1-13.6,3.9c-4-0.5-7.7-3.4-8.4-7.6C568.9,887.5,570.3,878.3,570.4,869.2z"/>
<path class="st2" d="M400.4,870.4c2.5-0.7,5-0.1,7.5,0c-0.4,3.3-1.5,6.5-3,9.4c-2.3,0.4-4.7,0.5-6.7,1.6c-1.9,1.5-2.2,4.3-2.5,6.5
	c-0.4,5.9,0,11.7-0.1,17.6c-4.1,0.2-8.3,0.3-12.4,0.2c-1-11.3-0.7-22.7-0.4-34.1c3.4-0.2,6.8-0.2,10.2-0.3c0.7,1,1.3,2,2,3
	C396.7,873,398.3,871.3,400.4,870.4z"/>
<path class="st2" d="M613.5,870.3c4.5,0,10.2-1.5,13.2,2.9c5-3,11.5-4.6,16.9-1.7c4.3,2.5,4.5,8,4.5,12.4
	c-0.2,7.1-0.4,14.2-0.3,21.2c-4.2,0.2-8.3,0.2-12.5-0.3c-0.2-8,0.3-16-0.5-24c-2.9-0.6-7.6-1.8-8.5,2.3c-1.6,7-0.4,14.3-0.7,21.4
	c-4.2,0.1-8.4,0-12.6-0.5C612.3,892.9,613.2,881.6,613.5,870.3z"/>
<path class="st2" d="M344.2,876.3c6.5-3.9,14.5-4.2,21.8-3.4c5.1,0.4,8.7,5.3,8.6,10.2c0.1,7.8-0.1,15.5,1.2,23.2
	c-2.6,0.5-5.2,1.2-7.8,1.1c-2.1-0.3-3.8-1.7-5.6-2.7c-5.6,3.8-13,6.8-19.6,3.5c-6.2-3.1-6.1-13.2-0.1-16.3
	c6.1-3.3,13.2-4.1,19.4-7.1c-0.5-1.5-0.6-3.5-2.3-4c-4.5-1-7.7,3.2-11.8,4c-2.9,0.3-5.9-0.1-8.8-0.3
	C340.3,881.3,341.3,877.9,344.2,876.3z"/>
<path class="st2" d="M681.6,872.7c4.3-0.3,8.7-0.1,13,0.6c2.1,7.5,3.8,15.2,6.1,22.7c1.8-4.5,3.2-9.2,4.4-14
	c0.8-2.7,1.4-5.6,3.4-7.7c3.7-0.6,7.5,0,11.2,0.5c-3.7,10.7-8.2,21.1-11.9,31.8c-1.9,4.5-3,9.9-7.1,13c-5.3,3-11.7,1.7-17.4,0.9
	c-0.3-2.8-0.6-5.5-0.8-8.3c3.4-0.2,7.5,0.8,10.3-1.5c2-2.3,0.4-5.5-0.4-8C688.5,892.8,684.4,883,681.6,872.7z"/>
<path class="st1" d="M542.5,877.4c2.3-0.6,5.2-0.6,6.8,1.3c1.7,2,1.5,4.8,1.6,7.3c-0.1,2.8-0.2,6.3-2.8,8c-3,1.6-7.2,0.7-8.5-2.7
	C537.7,887,537.6,879.9,542.5,877.4z"/>
<path class="st1" d="M351.4,896.5c2.8-3.1,7.1-3.8,11-4.7c-0.2,1.9-0.2,3.9-0.8,5.8c-1.5,3.2-5.6,4.8-8.9,3.8
	C351,900.3,351.1,898.2,351.4,896.5z"/>
<path class="st1" d="M811,903.8c12.7-0.5,25.3,0,38-1c7.3-0.6,14.7,0.1,22,0.5c16.3,0.3,32.7,0.1,49,1c9,0.5,18.2-0.5,27.1,0.9
	c-12.8,6.3-26.7,11.1-38.1,19.8c-7.8,7.7-16.5,14.4-23.5,22.8c4.4,10.2,10.7,19.3,17.7,27.8c4.8,6.3,11.3,11,16.1,17.3
	c-12-0.8-23.5-4.5-35.4-5.5c-9.3-0.8-18.6-2-28-2.2c-28-1.1-56-2.7-84-3c-11-1-22-0.4-32.9-1.6c-7-0.3-14-0.2-21-1
	c-9.1-0.4-18.2-0.3-27.3-1.6c8.8-2.8,18-4.2,27-6.1c8.6-1.9,17.8-2.9,25.5-7.8c5.7-3.6,10.6-8.4,14-14.2c5.7-9,9.1-19.2,14.5-28.4
	c3.3-5.6,6.2-11.5,9.6-17.1C791.3,904.5,801.1,904.4,811,903.8z"/>
<path class="st1" d="M29.8,914.8c10.4-0.3,20.8-0.2,31.2-1c46.9,0.1,93.8-0.9,140.7-0.5c4.6,7.2,8.8,14.6,13.1,22.1
	c4.4,7.4,9.2,14.7,13.6,22.2c2.6,4.3,3.8,9.3,6.7,13.4c2,2.8,5.6,3.6,8.8,4.4c6.3,1.4,12.6,2.9,19,4c9.6,1.7,19,4.4,28.6,6.2
	c3.6,0.6,7.2,1.5,10.7,2.6c-19.7,2.4-39.5,1.1-59.3,1.4c-14.4-0.4-28.7,1.2-43,1c-11.8-0.2-23.6,0.6-35.4,1.2
	c-22.6,2.8-45.4,4.3-67.7,9.4c-12.5,2.3-24.9,5.6-37.5,7.2c2.3-6.7,5.9-12.8,9-19.1c4.9-9.8,9.6-19.6,14.7-29.3
	c1.3-2.6,2.9-5.1,3.5-8c0.2-1.8-2-2.4-3.1-3.4c-7.8-4.5-15.5-9.4-23.3-13.9c-10.3-6-20-13-30.6-18.6
	C29.6,915.8,29.7,915.1,29.8,914.8z"/>
<path class="st2" d="M777.9,928.9c2-2.1,5.1-1.3,7.6-1.6c0.1,11.5,0,22.9,0,34.4c-3,0-6.1,0-9.1,0c0.2-6.9,0.2-13.8,0-20.7
	c-2.7,0.9-5.5,1.8-8.3,2.5c0-2.1,0-4.1,0-6.2C771.8,934.8,774.9,931.9,777.9,928.9z"/>
<path class="st2" d="M801.3,928.5c4.1-1.4,9.1-1.2,12.7,1.4c3.7,2.8,5.6,7.5,5.6,12c0.1,5.2,0.5,10.9-2.4,15.5
	c-3.2,4.7-9.9,5.8-15.1,4.4c-3.5-0.8-5.2-4.3-6.8-7.1c4.3-2.2,8.5,0.2,12.6,1.6c3-1.5,2.6-5.1,3.2-7.9c-3.4,0.9-7.2,2.9-10.6,1.1
	C792.5,945.7,792.3,931.1,801.3,928.5z"/>
<path class="st2" d="M827.2,928.4c6.7-0.1,13.4-0.1,20.1,0c0,2.4,0,4.8-0.1,7.2c-4.6-0.1-9.3,0-13.8,0.4c-0.1,1.2-0.1,2.4-0.1,3.6
	c4,0,8.7-0.6,11.8,2.4c6.1,5.2,4.1,16.9-3.6,19.6c-4.7,1.6-10.2,1.2-14.3-1.7c-2.3-1.6-2.9-4.4-3.8-6.9c2.8-0.1,6.1-1.1,8.5,1.1
	c2,1.1,4.2,3.7,6.5,1.8c3.1-2.8,1.4-7.3,0.3-10.7c-4.6,0.8-9.1,1.9-13.8,1.3C825.2,940.3,826,934.3,827.2,928.4z"/>
<path class="st2" d="M865.6,929.6c2.1-2.7,5.7-1.8,8.7-2c0.3,5.8,0,11.6,0.2,17.4c0,2.9,3.6,4.2,3.8,6.9c-1.7,3.2-3.8,6.2-5,9.7
	c-1.8,0-3.7,0.1-5.5,0.1c-0.5-2-1.1-4.1-1.7-6.1c-4.9-0.1-9.8-0.1-14.8,0c0.1-3.5-0.5-7.4,1.9-10.3
	C857.3,940,861.2,934.6,865.6,929.6z"/>
<path class="st1" d="M805.5,933.5c4.8-1.4,6,4.8,5.1,8.2c-0.1,2.7-3.4,3.3-5.5,2.7C801.5,941.8,802.1,936,805.5,933.5z"/>
<path class="st2" d="M118.6,934.6c8.4-0.1,16.8,0,25.1-0.1c0,2.4,0,4.8,0.1,7.2c-5.2,0-10.4,0-15.6,0.5c0,1.8,0.1,3.5,0.1,5.3
	c4.8-0.2,9.6-0.1,14.4,0.3c0,2,0,4,0,6c-4.8,0.4-9.6,0.6-14.5,0.6c0,2.1,0,4.2,0,6.3c5.4,0,10.8,0,16.2,0.2c0,2.5,0,4.9-0.1,7.4
	c-8.6,0.3-17.3,0.4-25.9-0.1C118.5,956.9,118.2,945.8,118.6,934.6z"/>
<path class="st2" d="M174.2,947.1c0.9-5.9,5.8-10,11.1-12c0.1,1.9,0.2,3.9,0.5,5.8c0.6,2.8,5,3.8,4.6,7c-0.1,2.5-3.1,3-4.8,4.4
	c0,2.5-0.3,5,0.2,7.5c1.3,1.6,3.1,2.9,4.3,4.6c0.2,1.4,0.1,2.9,0.1,4.3c-3.4-0.1-7.1,0.6-10.4-0.7c-3.6-2.5-2.1-7.4-2.6-11
	C177.4,953.3,174.7,950.5,174.2,947.1z"/>
<path class="st1" d="M859.7,948.1c1.5-3.7,3.9-7,7-9.5c0.3,3.2,0.4,6.3,0.4,9.5C864.6,948.2,862.2,948.2,859.7,948.1z"/>
<path class="st2" d="M149.1,948.3c1.5-3.3,5.4-4.8,8.8-4.9c3.3-0.1,6.9,0,9.6,2c1.5,1.1,1.7,3.2,2.2,4.9c-4.6,0-9-0.9-13.4-1.7
	c0.1,0.6,0.3,1.8,0.4,2.3c3.4,1.7,7.4,1.7,10.9,3.5c3.1,1.6,4.7,5.9,2.9,9.1c-1.5,3.3-5.1,5.1-8.6,5.2c-3.7,0.2-7.7,0.3-11-1.7
	c-2.1-1.1-2.4-3.7-3.1-5.7c3.7-0.3,7.5,0.2,10.9,1.6c1.8,0.9,3.6-0.3,5.4-0.9c-2.9-3-7.2-3.2-10.9-4.6
	C149.8,956.2,147.4,951.8,149.1,948.3z"/>
<path class="st1" d="M676.9,945.7c12.5,0.2,24.9,1.5,37.4,2.1c9.4,0.9,18.9,1.9,28,4.7c-5.8,5.7-14.2,6.9-21.7,9
	c-14.4,3.5-28.5,7.9-43.1,10.3C677.5,963.2,676.9,954.4,676.9,945.7z"/>
<path class="st1" d="M273,956.1c11.6-1.1,23-3.3,34.5-4.9c-0.3,10.2,0.9,20.4,1.1,30.6c-8.1-1.3-15.9-3.9-24-5.4
	c-9.8-1.9-19.4-4.4-29.1-6.9c-3.1-1-6.5-1.7-8.8-4.2c-2.3-2.5-3.4-5.8-4.7-8.8C252.3,956.2,262.7,956.8,273,956.1z"/>
<path class="st2" d="M194.9,959c2.9,0,5.8,0.1,8.7,0.6c-0.1,2.9-0.2,5.8-0.3,8.8c-2.9,0-5.8,0-8.7,0
	C194.6,965.2,194.7,962.1,194.9,959z"/>
</svg>
